<svg width="31" height="28" viewBox="0 0 31 28" fill="none" xmlns="http://www.w3.org/2000/svg">
<path d="M27.8135 6.9781C27.8332 7.28434 27.8332 7.59064 27.8332 7.89687C27.8332 17.2375 21.4405 28 9.75638 28C6.15673 28 2.81284 26.8406 0 24.8282C0.511441 24.8937 1.00314 24.9156 1.53426 24.9156C4.5044 24.9156 7.23859 23.8 9.42198 21.8969C6.62882 21.8313 4.28807 19.7969 3.48158 16.9969C3.87502 17.0625 4.26839 17.1062 4.6815 17.1062C5.25192 17.1062 5.82239 17.0187 6.35345 16.8656C3.44228 16.2093 1.25884 13.3656 1.25884 9.93124V9.84377C2.10462 10.3688 3.08821 10.6969 4.13065 10.7406C2.41934 9.47182 1.29819 7.30622 1.29819 4.8562C1.29819 3.54373 1.61285 2.3406 2.16365 1.29059C5.29121 5.57809 9.99239 8.37804 15.2639 8.68435C15.1656 8.15934 15.1066 7.61252 15.1066 7.06563C15.1066 3.17184 17.9391 0 21.46 0C23.2893 0 24.9416 0.853123 26.1022 2.23125C27.538 1.92501 28.9149 1.33436 30.1345 0.525004C29.6624 2.16567 28.6592 3.54379 27.3414 4.41873C28.62 4.26568 29.8592 3.87184 31 3.32502C30.1347 4.72497 29.0527 5.97179 27.8135 6.9781Z" fill="white"/>
</svg>
